<svg width="76" height="20" viewBox="0 0 76 20" fill="none" xmlns="http://www.w3.org/2000/svg">
    <path fill-rule="evenodd" clip-rule="evenodd"
        d="M11.7682 0.359816L11 1L10.2318 0.359816C10.4218 0.131823 10.7032 0 11 0C11.2968 0 11.5782 0.131823 11.7682 0.359816ZM13.6733 3.46883C13.5788 3.26736 13.4833 3.07439 13.3882 2.89058C12.99 2.12069 12.5917 1.4964 12.2909 1.06204C12.1403 0.844516 12.0136 0.673657 11.9226 0.554971C11.8771 0.495602 11.8405 0.449206 11.8143 0.41647L11.7829 0.377668L11.7734 0.366093L11.7703 0.362288L11.7691 0.360885C11.7691 0.360885 11.7682 0.359816 11 1C10.2318 0.359816 10.2318 0.359816 10.2318 0.359816L10.2309 0.360885L10.2297 0.362288L10.2266 0.366093L10.2171 0.377668L10.1857 0.41647C10.1595 0.449206 10.1229 0.495602 10.0774 0.554971C9.98643 0.673657 9.85965 0.844516 9.70906 1.06204C9.40835 1.4964 9.01 2.12069 8.61178 2.89058C8.51256 3.08242 8.41285 3.28423 8.31435 3.49528C7.73372 2.96423 7.1775 2.5275 6.71151 2.19006C6.32795 1.91231 6.00222 1.69945 5.76952 1.55444C5.65308 1.48187 5.55968 1.42614 5.49368 1.3876C5.46068 1.36833 5.4345 1.35335 5.4157 1.3427L5.39308 1.32998L5.38605 1.32606L5.38362 1.32472L5.38267 1.3242C5.38267 1.3242 5.38192 1.32378 4.9 2.2L5.38267 1.3242C5.12082 1.18018 4.80752 1.1604 4.52989 1.27101C4.25227 1.38162 4.03866 1.61059 3.94758 1.89522L4.9 2.2C3.94758 1.89522 3.94758 1.89522 3.94758 1.89522L3.9469 1.89735L3.94593 1.90039L3.94316 1.90923L3.93439 1.93772C3.92716 1.96146 3.91727 1.99462 3.90517 2.03669C3.88098 2.1208 3.84794 2.24066 3.80986 2.39213C3.73378 2.69476 3.63714 3.12526 3.55077 3.65013C3.43371 4.36147 3.33364 5.25737 3.3327 6.25035C2.58033 6.08641 1.79981 6 1 6C0.447715 6 0 6.44772 0 7C0 13.0523 4.94772 18 11 18C17.0523 18 22 13.0523 22 7C22 6.44772 21.5523 6 21 6C20.2002 6 19.4197 6.08641 18.6673 6.25035C18.6664 5.25737 18.5663 4.36147 18.4492 3.65013C18.3629 3.12526 18.2662 2.69476 18.1901 2.39213C18.1521 2.24066 18.119 2.1208 18.0948 2.03669C18.0827 1.99462 18.0728 1.96146 18.0656 1.93772L18.0568 1.90923L18.0541 1.90039L18.0527 1.89617C18.0527 1.89617 18.0524 1.89522 17.1 2.2L18.0527 1.89617C17.9637 1.61807 17.7573 1.39181 17.4882 1.27844C17.2192 1.16508 16.914 1.17499 16.6528 1.30557L17.1 2.2C16.6528 1.30557 16.6528 1.30557 16.6528 1.30557L16.6507 1.3066L16.648 1.308L16.6402 1.31193L16.6162 1.32431C16.5964 1.33458 16.5692 1.34889 16.5352 1.36726C16.4672 1.404 16.3717 1.45705 16.2532 1.52665C16.0162 1.66573 15.6859 1.87152 15.2978 2.14592C14.8245 2.48048 14.2607 2.92013 13.6733 3.46883ZM12.3021 5.36498C12.3137 5.54274 12.3725 5.71731 12.4769 5.86831C12.7879 6.82974 13 7.89242 13 9V9.46773C12.1827 10.335 11.504 11.3341 11 12.4288C10.496 11.3341 9.81728 10.335 9 9.46773V9C9 7.8924 9.21213 6.82969 9.52313 5.86826C9.62773 5.71701 9.68634 5.54247 9.69788 5.36498C9.90722 4.80062 10.1459 4.27782 10.3882 3.80942C10.5986 3.4027 10.8089 3.04227 11 2.73734C11.1911 3.04227 11.4014 3.4027 11.6118 3.80942C11.8541 4.27782 12.0928 4.80062 12.3021 5.36498ZM7.53606 5.52201C6.8315 4.80534 6.12061 4.23231 5.55077 3.81884C5.54184 3.86967 5.53298 3.9217 5.52423 3.97487C5.39422 4.76494 5.29189 5.79078 5.34877 6.90057C5.94932 7.16103 6.52248 7.47362 7.06248 7.83255C7.14885 7.01787 7.31892 6.24227 7.53606 5.52201ZM7.18283 10.4765C6.30364 9.64256 5.25768 8.98295 4.10208 8.55486C4.07242 8.54559 4.04331 8.53497 4.01483 8.52305C3.39237 8.2998 2.73881 8.14349 2.06295 8.06295C2.55195 12.1663 5.83367 15.448 9.93705 15.937C9.69723 13.9246 8.78571 12.1098 7.43498 10.7252C7.33691 10.6579 7.25144 10.5736 7.18283 10.4765ZM12.063 15.937C16.1663 15.448 19.448 12.1663 19.937 8.06295C19.2612 8.14349 18.6076 8.2998 17.9852 8.52305C17.9567 8.53497 17.9276 8.54559 17.8979 8.55486C16.7423 8.98295 15.6964 9.64256 14.8172 10.4765C14.7486 10.5736 14.6631 10.6579 14.565 10.7252C13.2143 12.1098 12.3028 13.9246 12.063 15.937ZM14.9375 7.83255C14.8505 7.01196 14.6786 6.23103 14.4592 5.50636C15.1647 4.75905 15.8764 4.18688 16.4433 3.78539C16.4542 3.84678 16.4651 3.90998 16.4758 3.97487C16.6058 4.76494 16.7081 5.79078 16.6512 6.90057C16.0507 7.16103 15.4775 7.47362 14.9375 7.83255Z"
        fill="#4FA0DB" />
    <path
        d="M69.4966 18.78C68.9899 18.78 68.5632 18.6934 68.2166 18.52C67.8832 18.36 67.6299 18.16 67.4566 17.92C67.2966 17.6934 67.2166 17.4934 67.2166 17.32C67.2166 17.0934 67.2966 16.9134 67.4566 16.78C67.6166 16.66 67.8099 16.6 68.0366 16.6C68.1699 16.6 68.2966 16.64 68.4166 16.72C68.5366 16.8 68.6032 16.8467 68.6166 16.86C68.7099 16.9267 68.8032 16.98 68.8966 17.02C68.9899 17.0734 69.0899 17.1 69.1966 17.1C69.4899 17.1 69.7299 16.9067 69.9166 16.52C70.1032 16.1334 70.2899 15.5067 70.4766 14.64C69.8766 13.76 69.3766 12.88 68.9766 12L68.5166 10.94C68.4499 10.78 68.2632 10.3667 67.9566 9.70002C67.6632 9.02002 67.3699 8.42002 67.0766 7.90002C66.8899 7.52668 66.7966 7.27335 66.7966 7.14002C66.7966 6.80668 66.9099 6.56002 67.1366 6.40002C67.3766 6.24002 67.6499 6.16002 67.9566 6.16002C68.1699 6.16002 68.3299 6.20668 68.4366 6.30002C68.5566 6.38002 68.6899 6.53335 68.8366 6.76002C69.2232 7.40002 69.6432 8.36002 70.0966 9.64002C70.3632 10.3734 70.5766 10.9334 70.7366 11.32C70.8966 11.6934 71.0899 12.0734 71.3166 12.46C71.5432 11.94 71.8299 11.0534 72.1766 9.80002C72.3899 9.08002 72.5632 8.50668 72.6966 8.08002C72.8432 7.64002 73.0032 7.24002 73.1766 6.88002C73.2966 6.64002 73.4432 6.44668 73.6166 6.30002C73.8032 6.15335 74.0099 6.08002 74.2366 6.08002C74.4632 6.08002 74.7032 6.16668 74.9566 6.34002C75.2232 6.50002 75.3566 6.69335 75.3566 6.92002C75.3566 7.05335 75.3099 7.21335 75.2166 7.40002C74.6966 8.60002 74.2366 9.73335 73.8366 10.8C73.4499 11.8534 73.0766 13.0134 72.7166 14.28C72.5032 14.9867 72.2766 15.66 72.0366 16.3C71.8099 16.94 71.6499 17.3334 71.5566 17.48C71.2899 17.8534 70.9899 18.16 70.6566 18.4C70.3232 18.6534 69.9366 18.78 69.4966 18.78Z"
        fill="#4FA0DB" />
    <path
        d="M62.1474 13.9C62.1207 14.1267 62.0274 14.3267 61.8674 14.5C61.7074 14.6733 61.5007 14.76 61.2473 14.76C60.8473 14.76 60.554 14.6867 60.3674 14.54C60.1807 14.38 60.0873 14.0933 60.0873 13.68C60.0873 13.12 60.1207 12.5067 60.1874 11.84C60.2407 11.0667 60.2673 10.4733 60.2673 10.06C60.2673 9.84667 60.254 9.58001 60.2273 9.26001C60.2007 8.96667 60.1874 8.74667 60.1874 8.60001C60.1474 8.37334 60.054 8.19334 59.9073 8.06001C59.774 7.92667 59.5607 7.81334 59.2673 7.72001C59.1473 7.66667 59.0474 7.58001 58.9674 7.46001C58.8874 7.32667 58.8474 7.20667 58.8474 7.10001C58.8474 6.79334 58.9674 6.56001 59.2074 6.40001C59.4474 6.24001 59.7407 6.16001 60.0873 6.16001C60.474 6.16001 60.8073 6.29334 61.0873 6.56001C61.3673 6.82667 61.5807 7.16001 61.7273 7.56001C62.034 7.12001 62.4074 6.76667 62.8474 6.50001C63.3007 6.23334 63.7407 6.10001 64.1674 6.10001C64.714 6.10001 65.174 6.19334 65.5473 6.38001C65.934 6.55334 66.1273 6.86001 66.1273 7.30001C66.1273 7.55334 66.014 7.82001 65.7874 8.10001C65.574 8.36667 65.354 8.50001 65.1273 8.50001C64.954 8.50001 64.7474 8.42001 64.5074 8.26001C64.414 8.19334 64.3073 8.14001 64.1873 8.10001C64.0807 8.04667 63.9674 8.02001 63.8474 8.02001C63.634 8.02001 63.434 8.05334 63.2473 8.12001C63.0607 8.18667 62.934 8.26667 62.8674 8.36001C62.654 8.69334 62.494 8.99334 62.3874 9.26001C62.294 9.52667 62.2473 9.81334 62.2473 10.12C62.2473 10.3467 62.2407 10.5267 62.2274 10.66L62.2074 11.8L62.2274 12.56C62.2274 13.12 62.2007 13.5667 62.1474 13.9Z"
        fill="#4FA0DB" />
    <path
        d="M49.2841 7.88002C49.1507 7.69336 49.0574 7.53336 49.0041 7.40003C48.9507 7.26669 48.9241 7.10003 48.9241 6.90003C48.9241 6.68669 49.0107 6.50669 49.1841 6.36003C49.3707 6.21336 49.6041 6.14003 49.8841 6.14003C50.1641 6.14003 50.4441 6.24669 50.7241 6.46002C51.0041 6.66003 51.2307 6.92002 51.4041 7.24002C51.6841 6.84002 52.0641 6.55336 52.5441 6.38003C53.0241 6.20669 53.5441 6.12003 54.1041 6.12003C54.7174 6.12003 55.2841 6.30669 55.8041 6.68003C56.3374 7.05336 56.7574 7.53336 57.0641 8.12002C57.3707 8.70669 57.5241 9.29336 57.5241 9.88002C57.5241 10.4534 57.4641 10.9667 57.3441 11.42C57.2241 11.86 57.0107 12.3067 56.7041 12.76C56.3574 13.24 55.8907 13.6334 55.3041 13.94C54.7307 14.2467 54.0441 14.4 53.2441 14.4C53.0307 14.4 52.7707 14.3467 52.4641 14.24C52.1574 14.12 51.9041 13.9934 51.7041 13.86C51.6107 14.7667 51.5641 15.5534 51.5641 16.22C51.5641 16.62 51.5841 17 51.6241 17.36C51.6507 17.7867 51.6641 18.0934 51.6641 18.28C51.6641 18.5734 51.5641 18.7867 51.3641 18.92C51.1641 19.0667 50.9441 19.14 50.7041 19.14C50.2241 19.14 49.9041 19.0067 49.7441 18.74C49.5974 18.4867 49.5241 18.12 49.5241 17.64C49.5774 16.4934 49.6441 15.4334 49.7241 14.46C49.8174 13.06 49.8641 11.34 49.8641 9.30002C49.8641 9.14003 49.7974 8.90669 49.6641 8.60003C49.5441 8.29336 49.4174 8.05336 49.2841 7.88002ZM51.7841 11.88C51.8507 12.1334 52.0374 12.3467 52.3441 12.52C52.6641 12.68 52.9507 12.76 53.2041 12.76C53.9641 12.76 54.5307 12.5534 54.9041 12.14C55.1841 11.8467 55.3641 11.56 55.4441 11.28C55.5374 11 55.5841 10.5534 55.5841 9.94003C55.5841 9.46003 55.4907 9.06003 55.3041 8.74003C55.1174 8.40669 54.8907 8.16669 54.6241 8.02003C54.3574 7.86003 54.1041 7.78003 53.8641 7.78003C53.3174 7.78003 52.8707 7.94669 52.5241 8.28003C52.1907 8.60003 51.9774 9.04003 51.8841 9.60003C51.8174 10.04 51.7841 10.8 51.7841 11.88Z"
        fill="#4FA0DB" />
    <path
        d="M46.3617 5.88C46.6284 5.88 46.8351 5.94667 46.9817 6.08C47.1417 6.2 47.2217 6.35334 47.2217 6.54C47.2217 6.67334 47.1951 6.81334 47.1417 6.96C47.1017 7.09334 47.0551 7.23334 47.0017 7.38C46.6951 8.10001 46.0484 9.10667 45.0617 10.4C46.0751 11.7067 46.8951 12.5467 47.5217 12.92C47.5751 12.9467 47.6751 12.9933 47.8217 13.06C47.9684 13.1267 48.0817 13.2067 48.1617 13.3C48.2551 13.3933 48.3017 13.5 48.3017 13.62C48.3017 13.9133 48.1884 14.1533 47.9617 14.34C47.7484 14.5133 47.4884 14.6 47.1817 14.6C46.6617 14.6 46.0951 14.3133 45.4817 13.74C44.8684 13.1533 44.3484 12.54 43.9217 11.9C43.6151 12.3667 43.2617 12.8333 42.8617 13.3C42.4751 13.7533 42.1151 14.14 41.7817 14.46C41.6484 14.6067 41.4884 14.72 41.3017 14.8C41.1284 14.88 40.9551 14.92 40.7817 14.92C40.5417 14.92 40.3284 14.8667 40.1417 14.76C39.9551 14.6533 39.8617 14.4667 39.8617 14.2C39.8617 14.1333 39.9084 14.0267 40.0017 13.88C40.0951 13.72 40.1484 13.6267 40.1617 13.6C40.3217 13.32 40.5351 13.0333 40.8017 12.74C41.0684 12.4333 41.2351 12.24 41.3017 12.16C41.4617 11.96 41.6351 11.7667 41.8217 11.58C41.9284 11.46 42.0884 11.2733 42.3017 11.02C42.5151 10.7667 42.6617 10.5667 42.7417 10.42L42.0417 9.46C41.7084 9.07334 41.4217 8.76667 41.1817 8.54C40.9417 8.30001 40.7484 8.18001 40.6017 8.18001C40.3884 8.18001 40.1884 8.24001 40.0017 8.36001C39.8417 8.46667 39.6817 8.52001 39.5217 8.52001C39.3484 8.52001 39.2151 8.48001 39.1217 8.40001C39.0284 8.30667 38.9817 8.20667 38.9817 8.10001C38.9817 7.64667 39.1617 7.26001 39.5217 6.94001C39.8817 6.60667 40.3351 6.44001 40.8817 6.44001C41.4017 6.44001 41.8617 6.62001 42.2617 6.98001C42.6751 7.32667 43.0817 7.79334 43.4817 8.38C43.5351 8.43334 43.5951 8.52001 43.6617 8.64001C43.7284 8.76001 43.7951 8.86001 43.8617 8.94001C44.0084 8.72667 44.2751 8.31334 44.6617 7.70001C45.0751 6.96667 45.3217 6.54667 45.4017 6.44001C45.6817 6.06667 46.0017 5.88 46.3617 5.88Z"
        fill="#4FA0DB" />
    <path
        d="M37.42 11.98C37.6733 11.98 37.86 12.08 37.98 12.28C38.1133 12.4667 38.18 12.6733 38.18 12.9C38.18 13.18 38.1333 13.38 38.04 13.5C37.96 13.6067 37.8 13.72 37.56 13.84C37 14.1067 36.3067 14.32 35.48 14.48C34.6533 14.64 33.7667 14.72 32.82 14.72C31.6333 14.72 30.76 14.52 30.2 14.12C29.6533 13.72 29.3133 13.24 29.18 12.68C29.06 12.1067 29 11.36 29 10.44C29 9.45333 29.04 8.48667 29.12 7.54C29.2 6.58 29.34 5.36 29.54 3.88C29.6333 3.24 29.8867 2.78 30.3 2.5C30.7133 2.20667 31.1667 2.06 31.66 2.06C32.0733 2.06 32.7467 2.04667 33.68 2.02L35.42 2C36.14 2 36.66 2.02 36.98 2.06C37.38 2.14 37.6733 2.23333 37.86 2.34C38.06 2.43333 38.16 2.6 38.16 2.84C38.16 3.10667 38.0667 3.36667 37.88 3.62C37.7067 3.87333 37.44 4 37.08 4C36.6667 4 36.0733 3.97333 35.3 3.92C34.5267 3.86667 33.9467 3.84 33.56 3.84C33.2267 3.84 32.9 3.86 32.58 3.9C32.2067 3.92667 31.94 3.97333 31.78 4.04C31.62 4.10667 31.5267 4.22 31.5 4.38C31.3133 5.75333 31.22 6.76667 31.22 7.42C31.5267 7.46 31.8267 7.48 32.12 7.48C32.4933 7.48 32.8933 7.46 33.32 7.42C33.7467 7.38 34.02 7.35333 34.14 7.34C34.8467 7.27333 35.4533 7.24 35.96 7.24C36.2533 7.24 36.4733 7.29333 36.62 7.4C36.78 7.50667 36.86 7.65333 36.86 7.84C36.86 8.13333 36.78 8.36 36.62 8.52C36.4733 8.68 36.2067 8.8 35.82 8.88C35.3533 8.97333 34.7733 9.04667 34.08 9.1C33.4 9.15333 32.7333 9.18 32.08 9.18C31.8533 9.18 31.54 9.16667 31.14 9.14C31.1 9.95333 31.08 10.7067 31.08 11.4C31.08 12.3467 31.7067 12.82 32.96 12.82C33.6267 12.82 34.18 12.7733 34.62 12.68C35.06 12.5867 35.5667 12.4533 36.14 12.28C36.6733 12.08 37.1 11.98 37.42 11.98Z"
        fill="#4FA0DB" />
</svg>