<svg width="22" height="18" viewBox="0 0 22 18" fill="none" xmlns="http://www.w3.org/2000/svg">
    <path fill-rule="evenodd" clip-rule="evenodd"
        d="M11.7682 0.359816L11 1L10.2318 0.359816C10.4218 0.131823 10.7032 0 11 0C11.2968 0 11.5782 0.131823 11.7682 0.359816ZM13.6733 3.46883C13.5788 3.26736 13.4833 3.07439 13.3882 2.89058C12.99 2.12069 12.5917 1.4964 12.2909 1.06204C12.1403 0.844516 12.0136 0.673657 11.9226 0.554971C11.8771 0.495602 11.8405 0.449206 11.8143 0.41647L11.7829 0.377668L11.7734 0.366093L11.7703 0.362288L11.7691 0.360885C11.7691 0.360885 11.7682 0.359816 11 1C10.2318 0.359816 10.2318 0.359816 10.2318 0.359816L10.2309 0.360885L10.2297 0.362288L10.2266 0.366093L10.2171 0.377668L10.1857 0.41647C10.1595 0.449206 10.1229 0.495602 10.0774 0.554971C9.98643 0.673657 9.85965 0.844516 9.70906 1.06204C9.40835 1.4964 9.01 2.12069 8.61178 2.89058C8.51256 3.08242 8.41285 3.28423 8.31435 3.49528C7.73372 2.96423 7.1775 2.5275 6.71151 2.19006C6.32795 1.91231 6.00222 1.69945 5.76952 1.55444C5.65308 1.48187 5.55968 1.42614 5.49368 1.3876C5.46068 1.36833 5.4345 1.35335 5.4157 1.3427L5.39308 1.32998L5.38605 1.32606L5.38362 1.32472L5.38267 1.3242C5.38267 1.3242 5.38192 1.32378 4.9 2.2L5.38267 1.3242C5.12082 1.18018 4.80752 1.1604 4.52989 1.27101C4.25227 1.38162 4.03866 1.61059 3.94758 1.89522L4.9 2.2C3.94758 1.89522 3.94758 1.89522 3.94758 1.89522L3.9469 1.89735L3.94593 1.90039L3.94316 1.90923L3.93439 1.93772C3.92716 1.96146 3.91727 1.99462 3.90517 2.03669C3.88098 2.1208 3.84794 2.24066 3.80986 2.39213C3.73378 2.69476 3.63714 3.12526 3.55077 3.65013C3.43371 4.36147 3.33364 5.25737 3.3327 6.25035C2.58033 6.08641 1.79981 6 1 6C0.447715 6 0 6.44772 0 7C0 13.0523 4.94772 18 11 18C17.0523 18 22 13.0523 22 7C22 6.44772 21.5523 6 21 6C20.2002 6 19.4197 6.08641 18.6673 6.25035C18.6664 5.25737 18.5663 4.36147 18.4492 3.65013C18.3629 3.12526 18.2662 2.69476 18.1901 2.39213C18.1521 2.24066 18.119 2.1208 18.0948 2.03669C18.0827 1.99462 18.0728 1.96146 18.0656 1.93772L18.0568 1.90923L18.0541 1.90039L18.0527 1.89617C18.0527 1.89617 18.0524 1.89522 17.1 2.2L18.0527 1.89617C17.9637 1.61807 17.7573 1.39181 17.4882 1.27844C17.2192 1.16508 16.914 1.17499 16.6528 1.30557L17.1 2.2C16.6528 1.30557 16.6528 1.30557 16.6528 1.30557L16.6507 1.3066L16.648 1.308L16.6402 1.31193L16.6162 1.32431C16.5964 1.33458 16.5692 1.34889 16.5352 1.36726C16.4672 1.404 16.3717 1.45705 16.2532 1.52665C16.0162 1.66573 15.6859 1.87152 15.2978 2.14592C14.8245 2.48048 14.2607 2.92013 13.6733 3.46883ZM12.3021 5.36498C12.3137 5.54274 12.3725 5.71731 12.4769 5.86831C12.7879 6.82974 13 7.89242 13 9V9.46773C12.1827 10.335 11.504 11.3341 11 12.4288C10.496 11.3341 9.81728 10.335 9 9.46773V9C9 7.8924 9.21213 6.82969 9.52313 5.86826C9.62773 5.71701 9.68634 5.54247 9.69788 5.36498C9.90722 4.80062 10.1459 4.27782 10.3882 3.80942C10.5986 3.4027 10.8089 3.04227 11 2.73734C11.1911 3.04227 11.4014 3.4027 11.6118 3.80942C11.8541 4.27782 12.0928 4.80062 12.3021 5.36498ZM7.53606 5.52201C6.8315 4.80534 6.12061 4.23231 5.55077 3.81884C5.54184 3.86967 5.53298 3.9217 5.52423 3.97487C5.39422 4.76494 5.29189 5.79078 5.34877 6.90057C5.94932 7.16103 6.52248 7.47362 7.06248 7.83255C7.14885 7.01787 7.31892 6.24227 7.53606 5.52201ZM7.18283 10.4765C6.30364 9.64256 5.25768 8.98295 4.10208 8.55486C4.07242 8.54559 4.04331 8.53497 4.01483 8.52305C3.39237 8.2998 2.73881 8.14349 2.06295 8.06295C2.55195 12.1663 5.83367 15.448 9.93705 15.937C9.69723 13.9246 8.78571 12.1098 7.43498 10.7252C7.33691 10.6579 7.25144 10.5736 7.18283 10.4765ZM12.063 15.937C16.1663 15.448 19.448 12.1663 19.937 8.06295C19.2612 8.14349 18.6076 8.2998 17.9852 8.52305C17.9567 8.53497 17.9276 8.54559 17.8979 8.55486C16.7423 8.98295 15.6964 9.64256 14.8172 10.4765C14.7486 10.5736 14.6631 10.6579 14.565 10.7252C13.2143 12.1098 12.3028 13.9246 12.063 15.937ZM14.9375 7.83255C14.8505 7.01196 14.6786 6.23103 14.4592 5.50636C15.1647 4.75905 15.8764 4.18688 16.4433 3.78539C16.4542 3.84678 16.4651 3.90998 16.4758 3.97487C16.6058 4.76494 16.7081 5.79078 16.6512 6.90057C16.0507 7.16103 15.4775 7.47362 14.9375 7.83255Z"
        fill="#4FA0DB" />
</svg>